<?xml version="1.0" encoding="UTF-8" standalone="no"?>
<!-- Created with Inkscape (http://www.inkscape.org/) -->

<svg
   width="500"
   height="125"
   viewBox="0 0 132.29166 33.072917"
   version="1.1"
   id="svg5"
   xml:space="preserve"
   inkscape:export-filename="../ab4ebd48/dark-mode-questhub.png"
   inkscape:export-xdpi="96"
   inkscape:export-ydpi="96"
   inkscape:version="1.2.2 (732a01da63, 2022-12-09, custom)"
   sodipodi:docname="questhub-logo.svg"
   xmlns:inkscape="http://www.inkscape.org/namespaces/inkscape"
   xmlns:sodipodi="http://sodipodi.sourceforge.net/DTD/sodipodi-0.dtd"
   xmlns="http://www.w3.org/2000/svg"
   xmlns:svg="http://www.w3.org/2000/svg"><sodipodi:namedview
     id="namedview7"
     pagecolor="#ffffff"
     bordercolor="#666666"
     borderopacity="1.0"
     inkscape:showpageshadow="2"
     inkscape:pageopacity="0.0"
     inkscape:pagecheckerboard="0"
     inkscape:deskcolor="#d1d1d1"
     inkscape:document-units="mm"
     showgrid="false"
     inkscape:zoom="0.8944164"
     inkscape:cx="143.11008"
     inkscape:cy="72.114062"
     inkscape:window-width="1366"
     inkscape:window-height="704"
     inkscape:window-x="0"
     inkscape:window-y="0"
     inkscape:window-maximized="1"
     inkscape:current-layer="layer1" /><defs
     id="defs2" /><g
     inkscape:label="Layer 1"
     inkscape:groupmode="layer"
     id="layer1"><path
       id="path878"
       style="fill:#ffffff;stroke-width:0.236428"
       d="m 48.443414,25.634782 c -0.520148,-0.174866 -1.565197,-0.596424 -2.322342,-0.936809 -1.175709,-0.528557 -1.581156,-0.597506 -2.778026,-0.472413 -1.297943,0.135665 -1.401402,0.111118 -1.401402,-0.332485 0,-0.574514 0.699508,-0.808142 1.624978,-0.54272 0.439644,0.126085 0.927685,0.07086 1.467402,-0.1661 0.807249,-0.354396 0.807633,-0.355334 0.216079,-0.527171 -1.760902,-0.511525 -3.47875,-2.082584 -4.045954,-3.70024 -0.524875,-1.496925 -0.396913,-4.491637 0.249025,-5.82821 0.678384,-1.403699 2.371766,-2.923073 3.654178,-3.2786667 1.701004,-0.4716706 3.812147,-0.31557 5.250687,0.3882367 2.214915,1.083661 3.186976,2.853659 3.19349,5.814906 0.0036,1.494595 -0.112887,2.133643 -0.566328,3.115398 -0.931948,2.017795 -2.132875,2.984182 -4.328756,3.483357 -3.077467,0.699589 -3.330718,0.790521 -2.69553,0.967826 0.325087,0.09074 1.685009,0.175599 3.022055,0.188565 2.602052,0.0252 3.637415,-0.240313 4.485205,-1.150323 1.100899,-1.181679 0.713261,1.171018 -0.397833,2.414542 -0.594352,0.665203 -0.820777,0.749772 -2.172363,0.811412 -0.831499,0.03789 -1.933408,-0.0739 -2.454565,-0.249105 z m 0.02037,-3.668235 c 0.406045,-0.247604 0.981211,-0.954984 1.296879,-1.595007 0.506324,-1.026567 0.567607,-1.467418 0.570707,-4.105417 0.0036,-2.701204 -0.04798,-3.055243 -0.594404,-4.117056 -0.328831,-0.638932 -0.887796,-1.378161 -1.242139,-1.642716 -0.783711,-0.5851291 -2.146681,-0.5971121 -2.779474,-0.0244 -2.521665,2.282077 -2.184175,10.161065 0.49334,11.517225 1.031682,0.522542 1.352336,0.517905 2.255091,-0.03262 z m 8.444319,0.680341 c -1.010431,-0.406912 -1.253621,-1.363979 -1.253621,-4.933566 0,-3.363289 -0.104532,-3.792917 -1.000602,-4.112642 -0.631113,-0.225184 0.01197,-0.375994 1.830708,-0.429288 l 1.888809,-0.05531 0.06443,4.151245 c 0.06997,4.505145 0.177672,4.871283 1.346742,4.577865 1.028339,-0.258094 1.307719,-1.216609 1.307719,-4.486478 0,-2.989332 -0.121108,-3.444195 -1.000594,-3.757995 -0.615171,-0.219501 -0.008,-0.366147 1.828099,-0.441798 l 1.891419,-0.07792 0.06443,4.306023 c 0.06005,4.012171 0.09633,4.323095 0.531969,4.55624 0.867823,0.464442 0.475976,0.670092 -1.424439,0.747539 -1.891981,0.07712 -1.891981,0.07712 -1.891427,-0.573066 5.54e-4,-0.650173 5.54e-4,-0.650173 -0.481742,-0.167878 -0.883685,0.883694 -2.488244,1.185825 -3.701922,0.69706 z M 68.4216,22.63402 c -2.028039,-0.85047 -3.087618,-3.777195 -2.341009,-6.466254 0.582502,-2.098007 2.381506,-3.358759 4.501969,-3.155003 1.870043,0.179682 2.790277,1.080596 3.142019,3.076055 0.156288,0.886607 0.156288,0.886607 -2.487682,0.886607 -2.643979,0 -2.643979,0 -2.488549,1.359467 0.08552,0.747697 0.350376,1.625438 0.588659,1.950524 0.868405,1.184762 2.419788,1.216672 3.481011,0.07158 0.315293,-0.340216 0.639727,-0.552103 0.720954,-0.470876 0.287914,0.287914 -0.469678,1.619036 -1.268017,2.227952 -0.906043,0.691073 -2.823634,0.950088 -3.849355,0.519934 z m 2.833651,-7.018053 c -0.0045,-1.131459 -0.476514,-2.06875 -1.041912,-2.06875 -0.577034,0 -1.237519,0.958085 -1.426155,2.06875 -0.150588,0.886608 -0.150588,0.886608 1.160482,0.886608 1.31107,0 1.31107,0 1.307585,-0.886608 z m 5.461904,6.841284 c -0.614242,-0.303435 -0.830651,-0.328053 -0.906311,-0.103093 -0.05469,0.162552 -0.250106,0.295536 -0.434319,0.295536 -0.259202,0 -0.334943,-0.400997 -0.334943,-1.773206 0,-1.418568 0.07095,-1.773212 0.354638,-1.773212 0.198894,0 0.354646,0.211002 0.354646,0.480452 0,1.020198 0.678679,2.131596 1.515058,2.48106 0.951893,0.397726 1.521447,0.253412 1.78224,-0.451574 0.289004,-0.781253 -0.169093,-1.698922 -1.318138,-2.640473 -2.359604,-1.933514 -2.991816,-3.075419 -2.392541,-4.321355 0.708033,-1.472023 3.150669,-2.176125 4.716089,-1.359431 0.549082,0.286457 0.676776,0.286251 0.91556,-0.0018 0.529128,-0.637565 0.692431,-0.326106 0.692431,1.320658 0,1.254541 -0.07944,1.654993 -0.32833,1.654993 -0.185053,0 -0.392973,-0.344603 -0.47647,-0.78968 -0.276171,-1.472085 -1.809298,-2.377083 -2.744311,-1.619956 -0.864786,0.700259 -0.489649,1.438799 1.508053,2.968905 1.810379,1.386641 2.364518,2.220784 2.328015,3.504373 -0.05549,1.951906 -3.089297,3.18568 -5.231367,2.127477 z m 8.539433,0.181193 c -0.970667,-0.389559 -1.230736,-1.534663 -1.230736,-5.418998 0,-3.554008 0,-3.554008 -0.709294,-3.554008 -0.390104,0 -0.709284,-0.106399 -0.709284,-0.236434 0,-0.130035 0.31918,-0.236425 0.709284,-0.236425 0.690966,0 0.709294,-0.02976 0.709294,-1.151011 0,-1.148079 0.0027,-1.151359 0.886598,-1.288033 0.487639,-0.07533 1.12599,-0.20817 1.418568,-0.295134 0.510926,-0.151856 0.53197,-0.100903 0.53197,1.288034 0,1.446144 0,1.446144 1.063922,1.446144 0.585156,0 1.063931,0.10639 1.063931,0.236425 0,0.130035 -0.478775,0.236434 -1.063931,0.236434 -1.063922,0 -1.063922,0 -1.063922,4.019271 0,4.019276 0,4.019276 0.589061,4.019276 0.333013,0 0.717434,-0.205543 0.884374,-0.472859 0.355522,-0.569286 0.654418,-0.612607 0.654418,-0.09485 0,0.207893 -0.330431,0.686668 -0.734296,1.063922 -0.774444,0.723448 -1.885065,0.885687 -2.999957,0.438251 z m 20.390882,-0.0063 c -0.99657,-0.511257 -1.15095,-1.116769 -1.24736,-4.892497 -0.0852,-3.333507 -0.12987,-3.636289 -0.58451,-3.954737 -0.27078,-0.189663 -0.44556,-0.388888 -0.38839,-0.442718 0.0572,-0.05379 0.92849,-0.13814 1.93627,-0.187349 l 1.83232,-0.08948 v 4.172244 c 0,4.545276 0.10155,4.906785 1.29429,4.607425 1.14421,-0.287181 1.32647,-0.947327 1.25418,-4.542872 -0.0633,-3.146291 -0.0879,-3.291544 -0.59795,-3.515289 -0.92817,-0.407216 -0.58096,-0.59411 1.1037,-0.59411 0.89962,0 1.80395,-0.06461 2.00964,-0.14351 0.33233,-0.127532 0.37439,0.326615 0.3776,4.078382 0.002,2.322043 0.0818,4.336043 0.17733,4.475568 0.0955,0.139515 0.35988,0.322361 0.58744,0.406322 0.9229,0.34051 0.35073,0.640353 -1.22191,0.640353 -0.89961,0 -1.80394,0.06461 -2.00964,0.14351 -0.28275,0.1085 -0.37397,-0.0089 -0.37397,-0.479936 0,-0.623437 0,-0.623437 -0.69412,-0.11026 -0.78587,0.581019 -2.69618,0.818195 -3.45492,0.428949 z m 9.57962,0.07685 c -0.004,-0.09753 -7.1e-4,-2.971184 0.007,-6.385903 0.0144,-6.238672 -0.0921,-7.1496116 -0.83563,-7.1496116 -0.19048,0 -0.34632,-0.094756 -0.34632,-0.2105826 0,-0.2082771 3.49972,-0.506306 3.84196,-0.3271777 0.0975,0.051024 0.17732,1.3068433 0.17732,2.7906609 0,2.697845 0,2.697845 0.86049,2.113895 1.59016,-1.079113 3.63259,-0.519156 4.45907,1.222507 0.55147,1.162136 0.71292,3.320379 0.3588,4.79649 -0.56451,2.353179 -2.74253,3.757343 -4.81191,3.102246 -1.18166,-0.374073 -2.70964,-0.390873 -3.0668,-0.03378 -0.29781,0.297824 -0.63345,0.340135 -0.64406,0.08123 z m 4.86113,-0.832751 c 0.51268,-0.440994 0.67177,-0.865 0.8882,-2.367262 0.28244,-1.96056 0.007,-4.592038 -0.55042,-5.264042 -0.40486,-0.487835 -1.32761,-0.424096 -1.88168,0.129964 -0.43198,0.431986 -0.47285,0.788089 -0.47285,4.120157 0,3.274802 0.0423,3.658329 0.41375,3.755417 0.78754,0.205802 0.98123,0.160577 1.603,-0.374243 z m -30.624547,0.537206 c 0,-0.130034 0.15199,-0.236425 0.337758,-0.236425 0.185768,0 0.504939,-0.16719 0.709284,-0.371535 0.315651,-0.315651 0.370981,-1.16017 0.367907,-5.615158 -0.0018,-2.883997 -0.08176,-5.364324 -0.177323,-5.51182 -0.09553,-0.147504 -0.378916,-0.30709 -0.629737,-0.354646 -0.25083,-0.04754 -0.410415,-0.171605 -0.354646,-0.275681 0.172676,-0.322218 5.421477,-0.3266145 5.421245,-0.0045 -1.16e-4,0.153501 -0.239597,0.313095 -0.532175,0.354647 -0.510998,0.07256 -0.534597,0.180388 -0.59881,2.735366 l -0.06684,2.659814 h 2.261551 2.261551 l -0.06684,-2.649573 c -0.06425,-2.54791 -0.08784,-2.654497 -0.612768,-2.778026 -1.283172,-0.301943 -0.327285,-0.5337663 2.200912,-0.5337663 2.528718,0 3.483268,0.2316263 2.200908,0.5340523 -0.54591,0.128756 -0.54591,0.128756 -0.60932,5.74299 -0.0634,5.614229 -0.0634,5.614229 0.65412,5.915921 0.39463,0.165939 0.64482,0.374404 0.55596,0.463253 -0.21081,0.210815 -5.392523,0.210815 -5.603338,0 -0.08882,-0.08882 0.159398,-0.296501 0.551673,-0.461439 0.713216,-0.299887 0.713216,-0.299887 0.713216,-2.912007 V 16.502843 H 96.201895 93.95583 v 2.71441 c 0,2.698199 0.0036,2.715302 0.591063,2.862771 1.340942,0.336551 0.421183,0.569938 -2.246065,0.569938 -1.733799,0 -2.837137,-0.09194 -2.837137,-0.236425 z" /><g
       id="g1456"
       transform="matrix(0.89358637,0,0,0.89358637,-7.8278019,-142.74134)"><path
         style="fill:#f9a21c;fill-opacity:1;stroke-width:0.264583"
         d="m 41.12514,193.27908 c 1.971271,-1.5582 2.484073,-2.19013 3.608909,-4.44735 0.969748,-1.94599 0.988875,-2.04323 0.988875,-5.02708 0,-2.9086 -0.0387,-3.12186 -0.878057,-4.83838 -1.786871,-3.65425 -5.378103,-6.52196 -9.335683,-7.45484 -2.108293,-0.49697 -6.01694,-0.51715 -7.807689,-0.0403 -2.184865,0.58178 -5.113344,2.27465 -6.681722,3.86251 -1.441648,1.45956 -1.441648,1.45956 -1.264677,0.33582 0.401408,-2.54888 2.649794,-6.32916 4.973227,-8.36165 4.880323,-4.26918 12.643252,-5.11433 18.177492,-1.97897 3.222723,1.82579 6.539743,5.97902 7.55682,9.46186 0.567068,1.94186 0.56556,6.83401 -0.0027,8.7675 -1.222158,4.15834 -4.186854,7.7819 -7.952409,9.71972 -1.186391,0.61054 -2.29841,1.11007 -2.471158,1.11007 -0.172748,0 0.317199,-0.499 1.088771,-1.10889 z"
         id="path876" /><path
         style="fill:#1786cc;fill-opacity:1;stroke-width:0.264583"
         d="m 30.112508,194.28104 c -2.021019,-0.64187 -3.845481,-1.76301 -5.670256,-3.48441 -2.147882,-2.02621 -3.177008,-3.53697 -4.124985,-6.05551 -1.264933,-3.36062 -0.847606,-5.20256 1.817106,-8.0201 3.052005,-3.22705 7.593046,-4.60232 12.072923,-3.65632 2.822599,0.59603 4.63311,1.57059 6.645033,3.57688 2.216044,2.20984 2.947701,3.93832 2.976102,7.03078 0.0258,2.8085 -0.690134,4.63443 -2.64502,6.74594 -3.618866,3.9088 -8.216737,4.16918 -11.435291,0.64756 -1.043681,-1.14195 -1.380464,-1.74181 -1.616645,-2.87949 -0.776416,-3.73998 1.595477,-7.29214 4.869192,-7.29214 2.762174,0 5.21609,2.56986 4.527022,4.74093 -0.547106,1.72377 -2.693079,2.98885 -4.089128,2.41059 -1.276976,-0.52894 -1.778023,-2.44129 -0.857824,-3.27405 1.081236,-0.97851 2.691146,-0.27947 2.691146,1.16851 0,0.86555 0.287046,0.97918 0.907143,0.35908 0.473752,-0.47375 0.546954,-1.75515 0.143347,-2.5093 -0.394062,-0.73631 -1.655451,-1.30826 -2.88526,-1.30826 -1.664926,0 -2.70951,1.07631 -2.865064,2.95209 -0.173154,2.088 0.559889,3.4523 2.189271,4.07457 1.052008,0.40176 1.396706,0.41909 2.669668,0.13422 2.503864,-0.56034 4.074228,-2.36533 4.074228,-4.68296 0,-2.47779 -1.507499,-4.37532 -4.330711,-5.45118 -2.309457,-0.88008 -5.535541,0.007 -7.070055,1.94483 -3.121021,3.94061 -2.018745,9.74747 2.338787,12.32088 1.614878,0.95369 1.522408,1.09541 -0.330729,0.50686 z"
         id="path872" /></g></g></svg>
